<svg xmlns="http://www.w3.org/2000/svg" viewBox="0 0 1440 320"><path fill="#FBE7C6" fill-opacity="1" d="M0,192L26.7,165.3C53.3,139,107,85,160,58.7C213.3,32,267,32,320,69.3C373.3,107,427,181,480,197.3C533.3,213,587,171,640,149.3C693.3,128,747,128,800,154.7C853.3,181,907,235,960,240C1013.3,245,1067,203,1120,165.3C1173.3,128,1227,96,1280,96C1333.3,96,1387,128,1413,144L1440,160L1440,320L1413.3,320C1386.7,320,1333,320,1280,320C1226.7,320,1173,320,1120,320C1066.7,320,1013,320,960,320C906.7,320,853,320,800,320C746.7,320,693,320,640,320C586.7,320,533,320,480,320C426.7,320,373,320,320,320C266.7,320,213,320,160,320C106.7,320,53,320,27,320L0,320Z"></path></svg>